# xmcd
#
# Track frame offsets: 
#        150
#        13147
#        24500
#        32710
#        43887
#        60357
#        74375
#        88425
#        98657
#        109807
#
# Disc length: 1607 seconds
#
# Revision: 2
# Processed by: cddbd v1.4PL0 Copyright (c) Steve Scherf et al.
# Submitted via: ExactAudioCopy v0.90b3
#
DISCID=8306450a
DTITLE=Marty Robbins - Isle Of Golden Dreams
DYEAR=1900
DGENRE=Country
TTITLE0=My Isle Of Golden Dreams
TTITLE1=Lovely Hula Hands
TTITLE2=Sweet Leilani
TTITLE3=Now Is The Hour (Maori Farewell Song)
TTITLE4=Island Echoes
TTITLE5=Hawaii's Calling Me
TTITLE6=Beyond The Reef
TTITLE7=Hawaiian Wedding Song
TTITLE8=Aloha Oe (Farewell To Thee)
TTITLE9=Love Song Of Kalua
EXTD=
EXTT0=
EXTT1=
EXTT2=
EXTT3=
EXTT4=
EXTT5=
EXTT6=
EXTT7=
EXTT8=
EXTT9=
PLAYORDER=
